<svg t="1602655672194" class="icon" viewBox="0 0 1024 1024" version="1.1" xmlns="http://www.w3.org/2000/svg" p-id="1703" width="200" height="200"><path d="M262.1 674.9c0-72.4 32-137.4 82.7-182 0.2-0.1 0.3-0.3 0.5-0.5s0.4-0.3 0.6-0.5c3.7-3.3 7.6-6.5 11.5-9.6 11.6-10.1 16.7-27.6 12.2-43.8-4.1-14.4-6.2-29.7-6.2-45.5 0-57.8 29.1-108.4 72.5-136.5 3.5-2.9 7.2-5.6 11-8.3-55.2 24.4-93.5 75.7-93.5 135 0 14.3 2.3 28.6 6.7 42.3 7.8 23.8-1.5 50.3-22.4 64.4-17.2 11.6-32.8 24.9-46.4 39.6l-19.5 25.8c-8.1 10.6-13.9 19.9-18.4 29l-1.8 3.8c-3.6 7.6-6.2 15.9-7.8 24.8l-10.1 54.9c-1.1 6.1-1.6 12.4-1.5 18.7 2.4 92.4 32 153.7 94.6 188.8-41.6-35.4-64.7-97.1-64.7-200.4z" fill="#FCF0AC" p-id="1704"></path><path d="M512 0C229.2 0 0 229.2 0 512s229.2 512 512 512 512-229.2 512-512S794.8 0 512 0z m-0.4 942.9c-130.6 0-304.9-26.5-310.8-255.6-0.2-8.4 0.5-16.9 2-25.1l10.1-54.9c2.1-11.5 5.6-22.3 10.2-32.3l2.1-4.3c5.4-10.9 12.4-22 21.6-34.1l20.9-27.5c15.3-16.6 32.9-31.7 52.4-44.8 9.5-6.4 13.7-18.3 10.2-29-5.5-16.8-8.3-34.3-8.3-51.9 0-95 79.7-173 180.8-180.6 0-61.9 12.4-102.7 37.2-121.1 20.6-15.2 41-9.1 43.3-8.4 8.2 2.7 12.6 11.5 9.9 19.6-2.7 8-11.3 12.4-19.3 10-1-0.3-8.2-1.8-15.9 4.2-9.2 7.2-24.2 29.3-24.2 95.6 101.7 7 182.1 85.3 182.1 180.7 0 18.9-3.2 37.7-9.5 55.6-4.5 12.9-0.3 27 10.6 35.2 67.1 50.8 105.5 124.1 105.5 201 0.1 235.3-149.4 267.7-310.9 267.7z" fill="#FCF0AC" p-id="1705"></path><path d="M355.9 483.6c0.5-0.4 1-0.9 1.5-1.4-3.9 3.1-7.8 6.3-11.5 9.6 3.2-2.8 6.5-5.5 10-8.2zM477.1 238c-10.6 2.5-20.8 5.9-30.4 10.2-3.8 2.6-7.4 5.4-11 8.3 12.7-8.2 26.6-14.5 41.4-18.5zM698.3 498.9c-21.7-16.4-30.2-44.7-21.1-70.4 5.2-14.6 7.8-29.9 7.8-45.3 0-82.9-74.4-150.3-165.8-150.3-0.7 0-1.3 0.1-2 0.1 81.7 1.6 123.6 72.5 123.6 160 0 17-2.5 33.4-7.2 48.7-5.7 18.6-0.4 39 13.2 51 50.8 44.6 82.8 109.7 82.8 182.2 0 155.2-58.3 213.4-142.4 233.6 127.9-12.8 204.3-66.9 204.3-233.3 0-67.2-34-131.4-93.2-176.3z" fill="#F7B643" p-id="1706"></path><path d="M729.6 674.9c0-72.5-32-137.6-82.8-182.2-13.6-11.9-18.9-32.3-13.2-51 4.7-15.4 7.2-31.7 7.2-48.7 0-87.4-41.9-158.4-123.6-160-13.8 0.1-27.2 1.9-40 5-14.8 4-28.7 10.3-41.4 18.5-43.4 28.1-72.5 78.7-72.5 136.5 0 15.8 2.2 31.1 6.2 45.5 4.5 16.1-0.6 33.6-12.2 43.8-0.5 0.4-1 1-1.5 1.4-3.4 2.7-6.7 5.4-10 8.3-0.2 0.2-0.4 0.3-0.6 0.5-0.2 0.1-0.3 0.3-0.5 0.5C294 537.6 262 602.6 262 675c0 103.3 23.2 165 64.5 200.4 44.4 24.9 105.4 36.5 185.1 36.5 26.8 0 52-1 75.5-3.3 84.2-20.3 142.5-78.5 142.5-233.7z m-345.4 22.8c-19.6 0-35.4-8.2-35.4-18.3 0-10.1 15.9-18.3 35.4-18.3 19.6 0 35.4 8.2 35.4 18.3 0 10.1-15.9 18.3-35.4 18.3zM424 333.4c-10.4 20.5-14 44.7-10.8 71.8 1 8.5-5.1 16.3-13.6 17.3-0.6 0.1-1.2 0.1-1.9 0.1-7.8 0-14.5-5.8-15.4-13.7-4-33.4 0.7-63.5 13.9-89.6 3.9-7.7 13.2-10.7 20.9-6.8 7.7 3.9 10.8 13.3 6.9 20.9z m8.1-38.7c-5.2-6.8-3.9-16.6 2.9-21.8 11-8.4 19.4-12.2 20.4-12.6 7.9-3.4 17 0.1 20.5 8 3.4 7.8-0.1 17-7.9 20.5-0.3 0.1-6.2 2.9-14.1 8.9-2.8 2.2-6.1 3.2-9.4 3.2-4.7-0.1-9.3-2.2-12.4-6.2zM457.4 661c-11.8 0-21.4-9.6-21.4-21.4 0-11.8 9.6-21.4 21.4-21.4 11.8 0 21.4 9.6 21.4 21.4-0.1 11.8-9.6 21.4-21.4 21.4z m90.5 43.9c0 16.8-13.7 30.5-30.5 30.5s-30.5-13.7-30.5-30.5v-11.4c0-6.5 5.3-11.7 11.7-11.7h37.6c6.5 0 11.7 5.3 11.7 11.7v11.4z m30.6-43.9c-11.8 0-21.4-9.6-21.4-21.4 0-11.8 9.6-21.4 21.4-21.4s21.4 9.6 21.4 21.4c0 11.8-9.6 21.4-21.4 21.4z m41.4 18.4c0-10.1 15.9-18.3 35.4-18.3 19.6 0 35.4 8.2 35.4 18.3 0 10.1-15.9 18.3-35.4 18.3s-35.4-8.2-35.4-18.3z" fill="#F9E741" p-id="1707"></path><path d="M717 474.1c-10.8-8.2-15.1-22.4-10.6-35.2 6.3-18 9.5-36.7 9.5-55.6 0-95.4-80.4-173.7-182.1-180.7 0-66.3 14.9-88.4 24.2-95.6 7.7-6 14.9-4.5 15.9-4.2 8 2.5 16.7-1.9 19.3-10 2.7-8.2-1.7-16.9-9.9-19.6-2.3-0.7-22.7-6.8-43.3 8.4-24.8 18.3-37.2 59.2-37.2 121.1-101 7.6-180.8 85.6-180.8 180.6 0 17.6 2.8 35.1 8.3 51.9 3.5 10.7-0.7 22.6-10.2 29-19.4 13.1-37.1 28.2-52.4 44.8l-20.9 27.5c-9.2 12.1-16.2 23.2-21.6 34.1l-2.1 4.3c-4.7 10-8.1 20.9-10.2 32.3l-10.1 54.9c-1.5 8.3-2.2 16.7-2 25.1 5.8 229.1 180.2 255.6 310.8 255.6 161.5 0 310.9-32.4 310.9-267.7 0.1-76.9-38.4-150.2-105.5-201zM587.2 908.5c-23.5 2.3-48.7 3.3-75.5 3.3-79.7 0-140.6-11.6-185.1-36.5-62.6-35-92.3-96.4-94.6-188.8-0.2-6.3 0.3-12.6 1.5-18.7l10.1-54.9c1.6-8.9 4.3-17.2 7.8-24.8l1.8-3.8c4.5-9.2 10.4-18.4 18.4-29l19.5-25.8c13.6-14.7 29.2-28 46.4-39.6 21-14.1 30.2-40.6 22.4-64.4-4.5-13.7-6.7-27.9-6.7-42.3 0-59.3 38.2-110.6 93.5-135 9.7-4.3 19.8-7.7 30.4-10.2 12.8-3 26.2-4.8 40-5 0.7 0 1.3-0.1 2-0.1 91.4 0 165.8 67.4 165.8 150.3 0 15.4-2.6 30.7-7.8 45.3-9 25.7-0.5 53.9 21.1 70.4 59.2 44.9 93.2 109.1 93.2 176.3 0.1 166.4-76.3 220.5-204.2 233.3z" fill="" p-id="1708"></path><path d="M457.4 639.6m-21.4 0a21.4 21.4 0 1 0 42.8 0 21.4 21.4 0 1 0-42.8 0Z" fill="" p-id="1709"></path><path d="M578.5 639.6m-21.4 0a21.4 21.4 0 1 0 42.8 0 21.4 21.4 0 1 0-42.8 0Z" fill="" p-id="1710"></path><path d="M536.2 692.1h-37.6c-0.8 0-1.4 0.6-1.4 1.4v11.4c0 11.1 9 20.1 20.1 20.1 11.1 0 20.1-9 20.1-20.1v-11.4c0.1-0.8-0.5-1.4-1.2-1.4z" fill="#F74376" p-id="1711"></path><path d="M536.2 681.7h-37.6c-6.5 0-11.7 5.3-11.7 11.7v11.4c0 16.8 13.7 30.5 30.5 30.5s30.5-13.7 30.5-30.5v-11.4c0-6.4-5.3-11.7-11.7-11.7z m1.3 23.2c0 11.1-9 20.1-20.1 20.1-11.1 0-20.1-9-20.1-20.1v-11.4c0-0.8 0.6-1.4 1.4-1.4h37.6c0.8 0 1.4 0.6 1.4 1.4v11.4z" fill="#020202" p-id="1712"></path><path d="M384.2 661c-19.6 0-35.4 8.2-35.4 18.3 0 10.1 15.9 18.3 35.4 18.3 19.6 0 35.4-8.2 35.4-18.3 0-10.1-15.9-18.3-35.4-18.3zM690.8 679.4c0-10.1-15.9-18.3-35.4-18.3-19.6 0-35.4 8.2-35.4 18.3 0 10.1 15.9 18.3 35.4 18.3s35.4-8.2 35.4-18.3z" fill="#F97A7A" p-id="1713"></path><path d="M417.2 312.5c-7.7-3.9-17-0.8-20.9 6.8-13.2 26.1-17.9 56.2-13.9 89.6 0.9 7.9 7.7 13.7 15.4 13.7 0.6 0 1.2 0 1.9-0.1 8.5-1 14.6-8.8 13.6-17.3-3.2-27.2 0.4-51.3 10.8-71.8 3.8-7.6 0.7-17-6.9-20.9zM453.9 297.6c7.8-6 13.8-8.8 14.1-8.9 7.8-3.5 11.4-12.6 7.9-20.5s-12.6-11.4-20.5-8c-0.9 0.4-9.4 4.2-20.4 12.6-6.8 5.2-8.1 15-2.9 21.8 3.1 4 7.7 6.1 12.4 6.1 3.3 0.1 6.6-0.9 9.4-3.1z" fill="#FFFFFF" p-id="1714"></path></svg>